<svg width="972" height="629" viewBox="0 0 972 629" fill="none" xmlns="http://www.w3.org/2000/svg">
<g clip-path="url(#clip0_10_41)">
<path d="M184.44 357.995C180.539 439.114 171.84 537.944 170.575 552.333L253.926 564.984L272.536 363.055C272.939 357.049 272.109 351.024 270.095 345.351C268.082 339.678 264.929 334.477 260.83 330.068C256.731 325.659 251.773 322.135 246.261 319.713C240.749 317.291 234.799 316.023 228.778 315.986C217.395 315.919 206.426 320.252 198.163 328.081C189.901 335.909 184.984 346.627 184.44 357.995V357.995Z" fill="#5A5A5A"/>
<path d="M259.462 567.777L162.719 555.232L166.779 523.027L262.361 536.415L259.462 567.777Z" fill="#C4C4C4"/>
<path d="M535.56 357.995C539.409 439.114 548.16 537.944 549.373 552.333L466.074 564.984L447.411 363.055C447.023 357.048 447.866 351.025 449.888 345.355C451.911 339.686 455.069 334.488 459.171 330.081C463.272 325.675 468.231 322.152 473.742 319.728C479.253 317.304 485.201 316.031 491.222 315.986C502.601 315.932 513.563 320.269 521.823 328.095C530.082 335.921 535.003 346.632 535.56 357.995V357.995Z" fill="#5A5A5A"/>
<path d="M460.486 567.777L557.281 555.232L553.221 523.027L457.586 536.415L460.486 567.777Z" fill="#C4C4C4"/>
<path d="M358.102 295.588L222.61 316.197L230 624.5L350.5 620.5L479 617.5L493.594 316.197L358.102 295.588Z" fill="#5A5A5A"/>
<path d="M230.834 563.35L225.088 390.938" stroke="#878787" stroke-miterlimit="10"/>
<path d="M485.581 563.35L491.275 390.938" stroke="#878787" stroke-miterlimit="10"/>
<path d="M356.784 347.506C344.899 347.506 333.501 342.786 325.097 334.384C316.693 325.982 311.971 314.586 311.971 302.703V239.294H401.597V302.545C401.624 308.444 400.485 314.29 398.245 319.747C396.005 325.204 392.708 330.165 388.543 334.343C384.378 338.522 379.428 341.836 373.978 344.095C368.528 346.354 362.684 347.513 356.784 347.506V347.506Z" fill="#CFCFCF"/>
<path d="M311.971 244.882C311.971 244.882 322.832 272.185 345.502 285.099C353.396 289.762 362.727 291.367 371.726 289.609C380.725 287.85 388.765 282.85 394.321 275.558C399.593 267.968 401.597 258.375 401.597 241.877C396.547 248.555 390.141 254.088 382.798 258.113C375.456 262.137 367.345 264.562 358.998 265.227C331.794 266.334 311.971 244.882 311.971 244.882Z" fill="#525252"/>
<path d="M421.42 205.086C435.918 215.628 461.013 167.136 446.884 155.592C432.755 144.049 420.207 166.134 420.207 166.134L416.675 181.947L410.243 197.127L415.515 201.291L421.42 205.086Z" fill="#CFCFCF"/>
<path d="M442.824 170.246C442.824 170.246 432.28 166.767 424.846 182.21" stroke="#404040" stroke-width="0.74" stroke-linecap="round" stroke-linejoin="round"/>
<path d="M429.96 174.673C429.96 174.673 441.401 180.787 433.862 189.959" stroke="#404040" stroke-width="0.74" stroke-linecap="round" stroke-linejoin="round"/>
<path d="M293.256 205.086C278.757 215.628 253.662 167.136 267.792 155.592C281.921 144.049 293.467 167.663 293.467 167.663L291.621 183.107L293.677 199.868L297.631 202.714L293.256 205.086Z" fill="#CFCFCF"/>
<path d="M271.693 170.246C271.693 170.246 282.237 166.767 289.671 182.21" stroke="#404040" stroke-width="0.74" stroke-linecap="round" stroke-linejoin="round"/>
<path d="M284.346 174.673C284.346 174.673 272.905 180.787 280.445 189.959" stroke="#404040" stroke-width="0.74" stroke-linecap="round" stroke-linejoin="round"/>
<path d="M424.636 142.257C424.603 167.366 421.917 192.401 416.622 216.946C412.721 235.025 401.702 244.565 386.097 255.107L383.25 256.952C375.162 262.223 365.739 265.082 356.085 265.194C346.431 265.306 336.945 262.667 328.737 257.584V257.584C311.813 247.043 300.004 236.501 296.366 216.84C292.128 192.242 289.679 167.368 289.038 142.415C289.038 142.415 282.712 66.1451 355.888 67.621C429.064 69.0969 424.636 142.257 424.636 142.257Z" fill="#CFCFCF"/>
<path d="M289.934 161.97C289.934 161.97 288.089 121.332 307.016 115.586L311.971 96.6637H284.346C284.346 96.6637 283.608 111.738 289.934 161.97Z" fill="#181818"/>
<path d="M423.897 161.97C423.897 161.97 423.476 121.332 404.549 115.586L399.277 95.1879L424.846 93.0268C424.846 93.0268 430.224 111.739 423.897 161.97Z" fill="#181818"/>
<path d="M411.297 99.7208C397.555 103.599 383.392 105.793 369.121 106.257C344.764 107.205 354.939 129.238 354.939 129.238C354.939 129.238 328.579 132.242 329.053 94.7662C329.053 94.7662 321.461 118.064 298.106 120.857C301.535 114.38 303.139 107.092 302.745 99.7735C302.745 99.7735 278.441 105.044 273.854 115.586C273.854 115.586 261.623 93.5011 284.926 68.1481C284.926 68.1481 277.808 61.5595 268.688 71.8904C268.53 71.8904 279.074 43.164 331.794 47.9078C336.242 49.1828 340.906 49.5178 345.489 48.8917C350.073 48.2655 354.476 46.6918 358.418 44.2709C371.599 35.8374 388.68 38.1566 395.323 49.0147C397.824 52.9282 399.859 57.1207 401.386 61.5068C401.386 61.5068 409.505 62.4555 410.032 48.3295C413.212 51.7117 414.983 56.1793 414.983 60.8215C414.983 65.4638 413.212 69.9314 410.032 73.3136C410.032 73.3136 442.824 80.1658 426.955 118.064L411.297 99.7208Z" fill="#121212"/>
<path d="M733.457 500.406C730.799 482.498 730.097 464.354 731.363 446.294L733.457 416.406C721.916 439.371 724.524 469.598 733.457 500.406V500.406Z" fill="#CACACA"/>
<path d="M742.457 505.406C741.177 494.72 740.84 483.942 741.449 473.197L742.457 455.406C736.904 469.076 738.159 487.068 742.457 505.406Z" fill="#CACACA"/>
<path d="M782.462 527.408V537.408C782.458 538.203 782.14 538.963 781.579 539.525C781.017 540.087 780.256 540.404 779.462 540.408H774.462C774.33 540.408 774.2 540.433 774.079 540.483C773.957 540.533 773.847 540.607 773.754 540.7C773.661 540.793 773.587 540.903 773.537 541.025C773.487 541.146 773.461 541.277 773.462 541.408V623.408C773.458 624.203 773.14 624.963 772.579 625.525C772.017 626.087 771.256 626.404 770.462 626.408H709.462C708.666 626.408 707.904 626.091 707.341 625.529C706.779 624.966 706.463 624.204 706.462 623.408V541.408C706.461 541.143 706.356 540.889 706.168 540.702C705.981 540.515 705.727 540.409 705.462 540.408H699.462C698.666 540.408 697.904 540.091 697.341 539.529C696.779 538.966 696.463 538.204 696.462 537.408V527.408C696.461 527.014 696.539 526.624 696.689 526.259C696.84 525.895 697.061 525.564 697.339 525.286C697.618 525.007 697.949 524.786 698.313 524.635C698.677 524.485 699.068 524.408 699.462 524.408H779.462C780.257 524.411 781.019 524.727 781.581 525.289C782.143 525.852 782.46 526.613 782.462 527.408V527.408Z" fill="#F2F2F2"/>
<path d="M773.552 542.508H706.552V545.508H773.552V542.508Z" fill="#A0A0A0"/>
<path d="M774 586.939C751.58 596.302 728.916 596.405 706 586.939V565.608C728.061 558.131 751.939 558.131 774 565.608V586.939Z" fill="#A0A0A0"/>
<path d="M603.152 608.446V614.516C603.155 616.182 602.847 617.834 602.242 619.386C601.973 620.078 601.649 620.747 601.272 621.386C600.08 623.387 598.389 625.043 596.364 626.193C594.339 627.343 592.05 627.947 589.722 627.946H143.172C140.843 627.947 138.554 627.343 136.53 626.193C134.505 625.043 132.814 623.387 131.622 621.386C131.245 620.747 130.92 620.078 130.652 619.386C130.047 617.834 129.738 616.182 129.742 614.516V608.446C129.741 606.683 130.088 604.937 130.762 603.308C131.437 601.679 132.425 600.198 133.672 598.951C134.918 597.704 136.398 596.715 138.027 596.04C139.656 595.364 141.401 595.017 143.165 595.016H168.912V592.186C168.912 592.113 168.926 592.04 168.954 591.972C168.982 591.904 169.023 591.843 169.075 591.791C169.127 591.739 169.188 591.697 169.256 591.669C169.324 591.641 169.397 591.626 169.47 591.626H182.902C183.05 591.626 183.192 591.685 183.297 591.789C183.402 591.894 183.461 592.036 183.462 592.184V595.016H191.852V592.186C191.852 592.113 191.866 592.04 191.894 591.972C191.922 591.904 191.963 591.843 192.015 591.791C192.067 591.739 192.128 591.697 192.196 591.669C192.264 591.641 192.336 591.626 192.41 591.626H205.842C205.99 591.626 206.132 591.685 206.237 591.789C206.342 591.894 206.402 592.036 206.402 592.184V595.016H214.802V592.186C214.802 592.113 214.816 592.04 214.844 591.972C214.872 591.904 214.913 591.843 214.965 591.791C215.017 591.739 215.078 591.697 215.146 591.669C215.214 591.641 215.286 591.626 215.36 591.626H228.792C228.94 591.626 229.082 591.685 229.187 591.789C229.292 591.894 229.351 592.036 229.352 592.184V595.016H237.742V592.186C237.742 592.113 237.756 592.04 237.784 591.972C237.812 591.904 237.853 591.843 237.905 591.791C237.957 591.739 238.018 591.697 238.086 591.669C238.154 591.641 238.226 591.626 238.3 591.626H251.732C251.88 591.626 252.022 591.685 252.127 591.789C252.232 591.894 252.291 592.036 252.292 592.184V595.016H260.682V592.186C260.682 592.113 260.696 592.04 260.724 591.972C260.752 591.904 260.793 591.843 260.845 591.791C260.897 591.739 260.958 591.697 261.026 591.669C261.094 591.641 261.166 591.626 261.24 591.626H274.672C274.82 591.626 274.962 591.685 275.067 591.789C275.172 591.894 275.231 592.036 275.232 592.184V595.016H283.632V592.186C283.632 592.113 283.646 592.04 283.674 591.972C283.702 591.904 283.743 591.843 283.795 591.791C283.847 591.739 283.908 591.697 283.976 591.669C284.044 591.641 284.116 591.626 284.19 591.626H297.622C297.77 591.626 297.912 591.685 298.017 591.789C298.122 591.894 298.181 592.036 298.182 592.184V595.016H306.572V592.186C306.572 592.113 306.586 592.04 306.614 591.972C306.642 591.904 306.683 591.843 306.735 591.791C306.787 591.739 306.848 591.697 306.916 591.669C306.984 591.641 307.056 591.626 307.13 591.626H412.332C412.405 591.626 412.478 591.64 412.546 591.668C412.614 591.696 412.675 591.738 412.727 591.789C412.779 591.841 412.821 591.903 412.849 591.971C412.877 592.038 412.892 592.111 412.892 592.184V595.016H421.292V592.186C421.292 592.113 421.306 592.04 421.334 591.972C421.362 591.904 421.403 591.843 421.455 591.791C421.507 591.739 421.568 591.697 421.636 591.669C421.704 591.641 421.776 591.626 421.85 591.626H435.282C435.43 591.628 435.571 591.687 435.676 591.792C435.781 591.897 435.84 592.038 435.842 592.186V595.016H444.232V592.186C444.232 592.113 444.246 592.04 444.274 591.972C444.302 591.904 444.343 591.843 444.395 591.791C444.447 591.739 444.508 591.697 444.576 591.669C444.644 591.641 444.716 591.626 444.79 591.626H458.222C458.295 591.626 458.368 591.641 458.436 591.669C458.504 591.697 458.565 591.738 458.617 591.789C458.669 591.841 458.711 591.903 458.739 591.971C458.767 592.038 458.782 592.111 458.782 592.184V595.016H467.172V592.186C467.172 592.113 467.186 592.04 467.214 591.972C467.242 591.904 467.283 591.843 467.335 591.791C467.387 591.739 467.448 591.697 467.516 591.669C467.584 591.641 467.656 591.626 467.73 591.626H481.162C481.235 591.626 481.308 591.641 481.376 591.669C481.444 591.697 481.505 591.738 481.557 591.789C481.609 591.841 481.651 591.903 481.679 591.971C481.707 592.038 481.722 592.111 481.722 592.185V595.016H490.122V592.186C490.122 592.113 490.136 592.04 490.164 591.972C490.192 591.904 490.233 591.843 490.285 591.791C490.337 591.739 490.398 591.697 490.466 591.669C490.534 591.641 490.606 591.626 490.68 591.626H504.112C504.259 591.628 504.399 591.688 504.502 591.793C504.605 591.898 504.662 592.039 504.662 592.186V595.016H513.062V592.186C513.062 592.113 513.076 592.04 513.104 591.972C513.132 591.904 513.173 591.843 513.225 591.791C513.277 591.739 513.338 591.697 513.406 591.669C513.474 591.641 513.546 591.626 513.62 591.626H527.052C527.125 591.626 527.198 591.641 527.266 591.669C527.334 591.697 527.395 591.738 527.447 591.789C527.499 591.841 527.541 591.903 527.569 591.971C527.597 592.038 527.612 592.111 527.612 592.185V595.016H536.002V592.186C536.002 592.113 536.016 592.04 536.044 591.972C536.072 591.904 536.113 591.843 536.165 591.791C536.217 591.739 536.278 591.697 536.346 591.669C536.414 591.641 536.486 591.626 536.56 591.626H549.992C550.065 591.626 550.138 591.641 550.206 591.669C550.274 591.697 550.335 591.738 550.387 591.789C550.439 591.841 550.481 591.903 550.509 591.971C550.537 592.038 550.552 592.111 550.552 592.185V595.016H589.722C593.283 595.015 596.698 596.429 599.217 598.946C601.735 601.464 603.151 604.878 603.152 608.439L603.152 608.446Z" fill="#C2C2C2"/>
<path d="M971.052 626.381H0V628.381H971.052V626.381Z" fill="#E3E3E3"/>
<path d="M567.194 352.812H158.151C156.672 352.812 155.208 353.103 153.842 353.669C152.476 354.235 151.235 355.064 150.19 356.11C149.144 357.155 148.315 358.396 147.749 359.762C147.183 361.128 146.892 362.592 146.892 364.071V591.982C146.892 594.968 148.078 597.832 150.19 599.943C152.301 602.055 155.165 603.241 158.151 603.241H567.194C570.18 603.241 573.044 602.055 575.155 599.943C577.267 597.832 578.453 594.968 578.453 591.982V364.071C578.453 361.085 577.267 358.221 575.155 356.11C573.044 353.998 570.18 352.812 567.194 352.812Z" fill="#E3E3E3"/>
<path d="M363 457.381C376.807 457.381 388 446.189 388 432.381C388 418.574 376.807 407.381 363 407.381C349.193 407.381 338 418.574 338 432.381C338 446.189 349.193 457.381 363 457.381Z" fill="#6B6B6B"/>
<path d="M517.763 267.219L643.969 140.016H703.552V138.016H643.134L642.841 138.313L516.341 265.813L517.763 267.219Z" fill="#ABABAB"/>
<path d="M922.552 87.7923H776.328V100.822H922.552V87.7923Z" fill="#EBEBEB"/>
<path d="M758.507 109.061H727.552V78.1055H758.507V109.061ZM729.552 107.061H756.507V80.1055H729.552L729.552 107.061Z" fill="#ABABAB"/>
<path d="M922.552 131.225H776.328V144.255H922.552V131.225Z" fill="#EBEBEB"/>
<path d="M758.507 152.494H727.552V121.539H758.507V152.494ZM729.552 150.494H756.507V123.539H729.552L729.552 150.494Z" fill="#ABABAB"/>
<path d="M922.552 174.658H776.328V187.688H922.552V174.658Z" fill="#EBEBEB"/>
<path d="M758.507 195.926H727.552V164.971H758.507V195.926ZM729.552 193.926H756.507V166.971H729.552L729.552 193.926Z" fill="#ABABAB"/>
</g>
<defs>
<clipPath id="clip0_10_41">
<rect width="971.052" height="628.381" fill="white"/>
</clipPath>
</defs>
</svg>
