<svg width="738" height="467" viewBox="0 0 738 467" fill="none" xmlns="http://www.w3.org/2000/svg">
<g id="iMac - 1">
<g id="coffee-smoke">
<path id="smoke-2" d="M517.539 332.308C515.946 321.576 515.525 310.703 516.284 299.881L517.539 281.969C510.622 295.732 512.185 313.846 517.539 332.308V332.308Z" fill="#CACACA"/>
<path id="smoke-1" d="M522.932 335.304C522.165 328.901 521.963 322.442 522.328 316.003L522.932 305.341C519.605 313.533 520.357 324.315 522.932 335.304Z" fill="#CACACA"/>
</g>
<g id="Group 5">
<g id="Group 2">
<g id="Group 4">
<path id="Vector" d="M188.529 246.966C186.191 295.578 180.978 354.804 180.22 363.427L230.17 371.008L241.323 249.998C241.564 246.399 241.067 242.788 239.86 239.389C238.654 235.989 236.764 232.872 234.308 230.23C231.851 227.587 228.88 225.476 225.577 224.024C222.273 222.573 218.708 221.813 215.1 221.791C208.278 221.751 201.705 224.347 196.753 229.039C191.802 233.73 188.855 240.153 188.529 246.966V246.966Z" fill="#5A5A5A"/>
<path id="Vector_2" d="M398.945 246.966C401.251 295.578 406.496 354.804 407.222 363.427L357.304 371.008L346.12 249.998C345.888 246.398 346.393 242.789 347.604 239.391C348.816 235.993 350.709 232.879 353.167 230.238C355.625 227.597 358.596 225.486 361.899 224.033C365.202 222.581 368.766 221.818 372.374 221.791C379.194 221.758 385.763 224.358 390.713 229.048C395.662 233.737 398.611 240.156 398.945 246.966V246.966Z" fill="#5A5A5A"/>
<path id="Vector_3" d="M292.6 209.567L211.403 221.917L215.832 406.674L288.044 404.277L365.05 402.479L373.796 221.917L292.6 209.567Z" fill="#5A5A5A"/>
<path id="Vector_4" d="M291.81 240.68C284.688 240.68 277.857 237.851 272.821 232.816C267.784 227.781 264.955 220.952 264.955 213.831V175.832H318.665V213.736C318.681 217.271 317.999 220.775 316.656 224.045C315.314 227.315 313.338 230.288 310.842 232.792C308.346 235.296 305.38 237.282 302.114 238.636C298.847 239.989 295.346 240.684 291.81 240.68V240.68Z" fill="#CFCFCF"/>
<path id="Vector_5" d="M264.955 179.18C264.955 179.18 271.463 195.542 285.049 203.281C289.779 206.076 295.371 207.037 300.764 205.984C306.157 204.93 310.975 201.934 314.305 197.564C317.464 193.015 318.665 187.266 318.665 177.38C315.639 181.381 311.799 184.697 307.4 187.109C303 189.521 298.139 190.974 293.137 191.373C276.834 192.036 264.955 179.18 264.955 179.18Z" fill="#525252"/>
<path id="Vector_6" d="M330.544 155.332C339.232 161.649 354.271 132.589 345.804 125.672C337.337 118.754 329.817 131.989 329.817 131.989L327.701 141.465L323.846 150.562L327.006 153.058L330.544 155.332Z" fill="#CFCFCF"/>
<path id="Vector_7" d="M343.371 134.453C343.371 134.453 337.052 132.368 332.598 141.623" stroke="#404040" stroke-width="0.74" stroke-linecap="round" stroke-linejoin="round"/>
<path id="Vector_8" d="M335.662 137.106C335.662 137.106 342.518 140.77 338 146.267" stroke="#404040" stroke-width="0.74" stroke-linecap="round" stroke-linejoin="round"/>
<path id="Vector_9" d="M253.739 155.332C245.051 161.649 230.012 132.589 238.479 125.672C246.947 118.754 253.866 132.905 253.866 132.905L252.76 142.16L253.992 152.205L256.362 153.911L253.739 155.332Z" fill="#CFCFCF"/>
<path id="Vector_10" d="M240.817 134.453C240.817 134.453 247.136 132.368 251.591 141.623" stroke="#404040" stroke-width="0.74" stroke-linecap="round" stroke-linejoin="round"/>
<path id="Vector_11" d="M248.4 137.106C248.4 137.106 241.544 140.77 246.062 146.267" stroke="#404040" stroke-width="0.74" stroke-linecap="round" stroke-linejoin="round"/>
<path id="Vector_12" d="M332.471 117.68C332.452 132.727 330.842 147.73 327.669 162.439C325.331 173.273 318.728 178.991 309.376 185.308L307.67 186.414C302.823 189.572 297.177 191.286 291.391 191.353C285.606 191.42 279.921 189.838 275.002 186.793V186.793C264.86 180.475 257.783 174.158 255.603 162.376C253.064 147.635 251.596 132.729 251.212 117.775C251.212 117.775 247.42 72.0688 291.273 72.9532C335.125 73.8377 332.471 117.68 332.471 117.68Z" fill="#CFCFCF"/>
</g>
<path id="Vector_13" d="M251.749 129.494C251.749 129.494 250.643 105.14 261.985 101.697L264.955 90.3577H248.4C248.4 90.3577 247.958 99.3915 251.749 129.494Z" fill="#181818"/>
<path id="Vector_14" d="M332.029 129.494C332.029 129.494 331.776 105.14 320.434 101.697L317.275 89.4732L332.598 88.1781C332.598 88.1781 335.82 99.3915 332.029 129.494Z" fill="#181818"/>
</g>
<g id="Group 3">
<path id="Vector_15" d="M546.906 348.49V354.482C546.903 354.958 546.713 355.414 546.377 355.751C546.04 356.088 545.584 356.278 545.108 356.28H542.112C542.033 356.28 541.955 356.295 541.882 356.325C541.809 356.355 541.743 356.399 541.687 356.455C541.632 356.511 541.588 356.577 541.557 356.65C541.527 356.723 541.512 356.801 541.512 356.879V406.02C541.51 406.496 541.32 406.951 540.983 407.288C540.647 407.625 540.191 407.815 539.715 407.817H503.159C502.682 407.817 502.225 407.627 501.888 407.29C501.551 406.953 501.362 406.496 501.361 406.02V356.879C501.361 356.721 501.298 356.569 501.185 356.456C501.073 356.344 500.921 356.281 500.762 356.28H497.166C496.69 356.28 496.233 356.09 495.896 355.753C495.559 355.416 495.369 354.959 495.369 354.482V348.49C495.368 348.254 495.415 348.02 495.505 347.801C495.595 347.583 495.728 347.385 495.895 347.218C496.062 347.051 496.26 346.918 496.478 346.828C496.696 346.738 496.93 346.692 497.166 346.692H545.108C545.584 346.693 546.041 346.883 546.378 347.22C546.715 347.557 546.904 348.013 546.906 348.49V348.49Z" fill="#F2F2F2"/>
<path id="Vector_16" d="M541.566 357.539H501.415V359.336H541.566V357.539Z" fill="#A0A0A0"/>
<path id="Vector_17" d="M541.835 384.164C528.399 389.776 514.817 389.838 501.085 384.164V371.382C514.305 366.901 528.614 366.901 541.835 371.382V384.164Z" fill="#A0A0A0"/>
</g>
<path id="Vector_18" d="M439.451 397.053V400.691C439.453 401.689 439.268 402.679 438.905 403.609C438.744 404.024 438.55 404.425 438.324 404.808C437.61 406.007 436.596 406.999 435.383 407.689C434.17 408.378 432.798 408.74 431.402 408.739H163.799C162.403 408.74 161.031 408.378 159.818 407.689C158.605 406.999 157.591 406.007 156.877 404.808C156.651 404.425 156.457 404.024 156.296 403.609C155.933 402.679 155.748 401.689 155.75 400.691V397.053C155.75 395.997 155.958 394.95 156.362 393.974C156.766 392.998 157.358 392.111 158.105 391.363C158.852 390.616 159.739 390.023 160.715 389.618C161.691 389.214 162.738 389.005 163.794 389.005H179.224V387.309C179.224 387.265 179.232 387.222 179.249 387.181C179.266 387.14 179.29 387.103 179.321 387.072C179.353 387.041 179.389 387.016 179.43 386.999C179.471 386.982 179.514 386.974 179.558 386.974H187.608C187.696 386.973 187.782 387.009 187.845 387.071C187.908 387.134 187.943 387.219 187.943 387.308V389.005H192.971V387.309C192.971 387.265 192.979 387.222 192.996 387.181C193.013 387.14 193.038 387.103 193.069 387.072C193.1 387.041 193.137 387.016 193.177 386.999C193.218 386.982 193.261 386.974 193.305 386.974H201.355C201.444 386.973 201.529 387.009 201.592 387.071C201.655 387.134 201.69 387.219 201.69 387.308V389.005H206.724V387.309C206.724 387.265 206.733 387.222 206.75 387.181C206.766 387.14 206.791 387.103 206.822 387.072C206.853 387.041 206.89 387.016 206.931 386.999C206.971 386.982 207.015 386.974 207.059 386.974H215.108C215.197 386.974 215.282 387.009 215.345 387.071C215.408 387.134 215.443 387.219 215.444 387.308V389.005H220.471V387.309C220.471 387.265 220.48 387.222 220.497 387.181C220.514 387.14 220.538 387.103 220.569 387.072C220.6 387.041 220.637 387.016 220.678 386.999C220.718 386.982 220.762 386.974 220.806 386.974H228.855C228.944 386.974 229.029 387.009 229.092 387.071C229.155 387.134 229.191 387.219 229.191 387.308V389.005H234.219V387.309C234.219 387.265 234.227 387.222 234.244 387.181C234.261 387.14 234.285 387.103 234.316 387.072C234.348 387.041 234.384 387.016 234.425 386.999C234.466 386.982 234.509 386.974 234.553 386.974H242.602C242.691 386.974 242.777 387.009 242.84 387.071C242.902 387.134 242.938 387.219 242.938 387.308V389.005H247.972V387.309C247.972 387.265 247.98 387.222 247.997 387.181C248.014 387.14 248.039 387.103 248.07 387.072C248.101 387.041 248.138 387.016 248.178 386.999C248.219 386.982 248.262 386.974 248.306 386.974H256.356C256.445 386.974 256.53 387.009 256.593 387.071C256.656 387.134 256.691 387.219 256.691 387.308V389.005H261.719V387.309C261.719 387.265 261.728 387.222 261.744 387.181C261.761 387.14 261.786 387.103 261.817 387.072C261.848 387.041 261.885 387.016 261.926 386.999C261.966 386.983 262.01 386.974 262.054 386.974H325.098C325.142 386.974 325.186 386.982 325.226 386.999C325.267 387.016 325.304 387.04 325.335 387.071C325.366 387.102 325.391 387.139 325.408 387.18C325.425 387.221 325.434 387.264 325.434 387.308V389.005H330.467V387.309C330.467 387.265 330.476 387.222 330.493 387.181C330.51 387.14 330.534 387.103 330.565 387.072C330.596 387.041 330.633 387.016 330.674 386.999C330.714 386.983 330.758 386.974 330.802 386.974H338.851C338.94 386.975 339.025 387.01 339.088 387.073C339.15 387.136 339.186 387.221 339.187 387.309V389.005H344.215V387.309C344.215 387.265 344.223 387.222 344.24 387.181C344.257 387.14 344.281 387.103 344.312 387.072C344.344 387.041 344.38 387.016 344.421 386.999C344.462 386.983 344.505 386.974 344.549 386.974H352.598C352.642 386.974 352.686 386.982 352.727 386.999C352.767 387.016 352.804 387.04 352.836 387.071C352.867 387.103 352.891 387.139 352.908 387.18C352.925 387.221 352.934 387.264 352.934 387.308V389.005H357.962V387.309C357.962 387.265 357.97 387.222 357.987 387.181C358.004 387.14 358.029 387.103 358.06 387.072C358.091 387.041 358.128 387.016 358.168 386.999C358.209 386.983 358.252 386.974 358.296 386.974H366.346C366.39 386.974 366.433 386.982 366.474 386.999C366.515 387.016 366.552 387.04 366.583 387.071C366.614 387.103 366.639 387.139 366.656 387.18C366.672 387.221 366.681 387.264 366.681 387.308V389.005H371.715V387.309C371.715 387.265 371.724 387.222 371.74 387.181C371.757 387.14 371.782 387.103 371.813 387.072C371.844 387.041 371.881 387.016 371.922 386.999C371.962 386.983 372.006 386.974 372.05 386.974H380.099C380.187 386.975 380.271 387.011 380.333 387.074C380.395 387.136 380.429 387.221 380.429 387.309V389.005H385.462V387.309C385.462 387.265 385.471 387.222 385.488 387.181C385.504 387.14 385.529 387.103 385.56 387.072C385.591 387.041 385.628 387.016 385.669 386.999C385.709 386.983 385.753 386.974 385.797 386.974H393.846C393.89 386.974 393.934 386.982 393.974 386.999C394.015 387.016 394.052 387.04 394.083 387.071C394.114 387.103 394.139 387.139 394.156 387.18C394.173 387.221 394.182 387.264 394.182 387.308V389.005H399.21V387.309C399.21 387.265 399.218 387.222 399.235 387.181C399.252 387.14 399.276 387.103 399.307 387.072C399.338 387.041 399.375 387.016 399.416 386.999C399.457 386.983 399.5 386.974 399.544 386.974H407.593C407.637 386.974 407.681 386.982 407.722 386.999C407.762 387.016 407.799 387.04 407.831 387.071C407.862 387.103 407.886 387.139 407.903 387.18C407.92 387.221 407.929 387.264 407.929 387.308V389.005H431.402C433.536 389.005 435.583 389.852 437.092 391.36C438.602 392.869 439.45 394.915 439.451 397.049L439.451 397.053Z" fill="#C2C2C2"/>
<path id="Vector_19" d="M324.067 93.2876C315.832 95.6115 307.344 96.9267 298.792 97.2044C287.445 101.945 287.145 96.5518 287.145 96.5518C287.145 96.5518 276.658 97.7504 274.78 90.3185C274.78 90.3185 274.261 95.9525 267.369 95.6529C263.174 95.4705 261.377 94.754 259.015 93.3192L249 96.5518C249 96.5518 244.5 92.5 248.336 74.3671C248.336 74.3671 247.5 72 249 66.292C254.756 63.2806 263.463 61.0715 276.423 62.2377C279.088 63.0017 281.883 63.2025 284.63 62.8273C287.377 62.452 290.016 61.509 292.378 60.0582C300.277 55.0043 310.513 56.3941 314.494 62.901C315.993 65.2462 317.212 67.7587 318.127 70.3871C320.405 71.9817 322.802 69.5847 322.802 69.5847C324.6 71.9817 323.701 74.9781 323.309 77.4626C323.309 77.4626 342.96 81.5689 333.45 104.28L324.067 93.2876Z" fill="#121212"/>
<path id="Vector_20" d="M659.922 407.801H78V409H659.922V407.801Z" fill="#E3E3E3"/>
<path id="Vector_21" d="M417.902 243.859H172.775C171.889 243.859 171.012 244.034 170.193 244.373C169.374 244.712 168.631 245.209 168.004 245.836C167.378 246.462 166.881 247.206 166.542 248.024C166.203 248.843 166.028 249.72 166.028 250.606V387.187C166.028 388.976 166.739 390.692 168.004 391.958C169.269 393.223 170.986 393.934 172.775 393.934H417.902C419.692 393.934 421.408 393.223 422.673 391.958C423.938 390.692 424.649 388.976 424.649 387.187V250.606C424.649 248.817 423.938 247.101 422.673 245.836C421.408 244.57 419.692 243.859 417.902 243.859Z" fill="#E3E3E3"/>
<path id="Vector_22" d="M295.535 306.525C303.809 306.525 310.517 299.817 310.517 291.543C310.517 283.269 303.809 276.561 295.535 276.561C287.261 276.561 280.553 283.269 280.553 291.543C280.553 299.817 287.261 306.525 295.535 306.525Z" fill="#6B6B6B"/>
</g>
<path id="hair-1" d="M290.142 110.934C276.658 111.234 274.261 96.7517 274.86 90.2596L298.831 89.96V97.1512C287.325 97.1512 288.244 106.34 290.142 110.934Z" fill="#121212"/>
<path id="hair-2" d="M256.283 105.841C258.68 101.766 259.079 95.7528 258.98 93.2559V90.5592L274.86 90.2595C269.766 102.245 261.976 105.241 256.283 105.841Z" fill="#121212"/>
<path id="hair-3" d="M323.401 62.3936C323.101 68.6859 320.704 70.1841 318.008 70.4837H315.011V77.3753H317.708H323.401C325.199 75.2779 328.794 69.2852 323.401 62.3936Z" fill="#121212"/>
<path id="hair-4" d="M258 63C245 66.5 240.5 72.3333 238.5 76.5C243 71.5 247.833 73.5 249 75L258 63Z" fill="#121212"/>
<path id="hair-5" d="M241.324 102C236.888 89.0236 244.221 78.2848 248.5 74.5H259.5L259 93C249.406 94.1992 243.341 99.8262 241.503 102.495C243.544 108.112 246.162 115.32 241.5 102.5C241.439 102.333 241.38 102.166 241.324 102Z" fill="#121212"/>
<g id="tasks">
<path id="Vector_23" d="M388.28 192.566L463.911 116.337H499.618V115.139H463.411L463.235 115.317L387.428 191.724L388.28 192.566Z" fill="#ABABAB"/>
<g id="task-4">
<g id="body">
<path id="Vector_24" d="M631.126 155.692H543.498V163.5H631.126V155.692Z" fill="#EBEBEB"/>
<path id="Vector_25" d="M532.819 168.438H514.268V149.887H532.819V168.438ZM515.467 167.239H531.62V151.085H515.467L515.467 167.239Z" fill="#ABABAB"/>
</g>
<rect id="check" x="528.052" y="163.67" width="8.98905" height="8.98905" transform="rotate(-180 528.052 163.67)" fill="#D9D9D9"/>
</g>
<g id="task-3">
<g id="body_2">
<path id="Vector_26" d="M631.126 132.32H543.498V140.129H631.126V132.32Z" fill="#EBEBEB"/>
<path id="Vector_27" d="M532.819 145.066H514.268V126.515H532.819V145.066ZM515.467 143.868H531.62V127.714H515.467L515.467 143.868Z" fill="#ABABAB"/>
</g>
<rect id="check_2" x="528.052" y="140.299" width="8.98905" height="8.98905" transform="rotate(-180 528.052 140.299)" fill="#D9D9D9"/>
</g>
<g id="task-2">
<g id="body_3">
<path id="Vector_28" d="M631.126 108.949H543.498V116.757H631.126V108.949Z" fill="#EBEBEB"/>
<path id="Vector_29" d="M532.819 121.695H514.268V103.144H532.819V121.695ZM515.467 120.496H531.62V104.342H515.467L515.467 120.496Z" fill="#ABABAB"/>
</g>
<rect id="check_3" x="528.052" y="116.927" width="8.98905" height="8.98905" transform="rotate(-180 528.052 116.927)" fill="#D9D9D9"/>
</g>
<g id="task-1">
<g id="body_4">
<path id="Vector_30" d="M631.126 85.041H543.498V92.8494H631.126V85.041Z" fill="#EBEBEB"/>
<path id="Vector_31" d="M532.819 97.7236H514.268V79.1729H532.819V97.7236ZM515.467 96.525H531.62V80.3714H515.467L515.467 96.525Z" fill="#ABABAB"/>
</g>
<rect id="check_4" x="528.052" y="92.9561" width="8.98905" height="8.98905" transform="rotate(-180 528.052 92.9561)" fill="#D9D9D9"/>
</g>
</g>
</g>
</svg>
