<svg xmlns="http://www.w3.org/2000/svg" viewBox="0 0 140.1 96.68"><defs><style>.cls-1{fill:#e9e9e9;}</style></defs><title>Asset 1</title><g id="Layer_2" data-name="Layer 2"><g id="Graphic_Elements" data-name="Graphic Elements"><path class="cls-1" d="M79.6,23A13.49,13.49,0,1,0,58.78,6.08c-.64.64-54.34,66.83-54.84,67.59A13.49,13.49,0,1,0,24.75,90.61C25.39,90,79.1,23.78,79.6,23Z"/><path class="cls-1" d="M110.67,54.42A13.49,13.49,0,1,0,89.86,37.48c-.64.64-28.85,35.41-29.35,36.18A13.49,13.49,0,1,0,81.32,90.6C82,90,110.17,55.19,110.67,54.42Z"/><path class="cls-1" d="M140.1,13.49A13.49,13.49,0,1,1,126.61,0,13.49,13.49,0,0,1,140.1,13.49Z"/><path class="cls-1" d="M27,13.49A13.49,13.49,0,1,1,13.49,0,13.49,13.49,0,0,1,27,13.49Z"/></g></g></svg>